# xmcd
#
# Track frame offsets:
# 150
# 18042
# 36768
# 56181
# 74406
# 94888
# 116345
# 151192
# 169127
# 186502
# 211475
# 230586
# 247112
#
# Disc length: 3633 seconds
#
#
# Revision: 0
# Processed by: cddbd v1.4PL0 Copyright (c) Steve Scherf et al.
# Submitted via: FreeRIP 2.30 
#
DISCID=b50e2f0d
DTITLE=Yvonne Moore - between you and I
DYEAR=1999
DGENRE=Soul
TTITLE0=my body
TTITLE1=try communication
TTITLE2=what does it mean
TTITLE3=shelter
TTITLE4=I ain't running away
TTITLE5=seven years
TTITLE6=it hurts so bad
TTITLE7=between you and I
TTITLE8=full of fire
TTITLE9=attraction
TTITLE10=feel good
TTITLE11=my hand in yours
TTITLE12=give me the strength
EXTD=
EXTT0=
EXTT1=
EXTT2=
EXTT3=
EXTT4=
EXTT5=
EXTT6=
EXTT7=
EXTT8=
EXTT9=
EXTT10=
EXTT11=
EXTT12=
PLAYORDER=
